<?xml version="1.0" encoding="utf-8"?>
<!-- Generator: Adobe Illustrator 24.2.1, SVG Export Plug-In . SVG Version: 6.00 Build 0)  -->
<svg version="1.1" id="Layer_1" xmlns="http://www.w3.org/2000/svg" xmlns:xlink="http://www.w3.org/1999/xlink" x="0px" y="0px"
	 viewBox="0 0 167.73 146.22" style="enable-background:new 0 0 167.73 146.22;" xml:space="preserve">
<style type="text/css">
	.st0{fill:#ED1D24;}
</style>
<path class="st0" d="M1.17,2.68l10.63-0.26c8.3-0.2,13.9,3.21,13.97,13.34c0.07,9.82-5.42,14.51-13.57,14.71l-6.13,0.15L6.2,49.05
	l-4.71,0.11L1.17,2.68z M11.56,25.74c6.53-0.16,9.6-3.21,9.55-9.86c-0.05-6.71-3.35-8.78-9.88-8.63L5.92,7.38l0.13,18.49
	L11.56,25.74z"/>
<path class="st0" d="M30.79,31.76C33.01,20.48,40.21,15,46.82,16.19c6.61,1.19,11.23,8.81,9.01,20.09
	c-2.21,11.22-9.4,16.64-16,15.44C33.22,50.54,28.58,42.99,30.79,31.76z M51.15,35.44c1.53-7.79-0.6-13.67-5.27-14.51
	c-4.67-0.84-8.84,3.89-10.37,11.68c-1.53,7.79,0.58,13.53,5.24,14.38C45.42,47.84,49.62,43.24,51.15,35.44z"/>
<path class="st0" d="M70.36,23.3l3.5,1.41l-2.04,5.98l0.14,0.06c3.46-3.35,7.1-4.9,9.95-3.76c1.12,0.45,1.84,0.95,2.42,1.79
	l-2.74,4.39c-0.67-0.75-1.23-1.11-2.26-1.52c-2.1-0.84-5.5-0.01-9.45,4.78l-8.51,20.54l-4.25-1.71L70.36,23.3z"/>
<path class="st0" d="M79.61,53.76l10.17-16.29l-3.47-2.14l2.33-3.73l3.81,1.97l5.64-7.99l3.25,2.01l-5.17,8.28l6.29,3.88l-2.5,4
	l-6.29-3.88L83.43,56.27c-2.26,3.63-2.65,6.23,0.05,7.9c0.81,0.5,2.12,0.78,3.13,0.88l-1.53,4.15c-1.67-0.28-3.54-0.69-4.96-1.56
	C75.16,64.58,75.96,59.6,79.61,53.76z"/>
<path class="st0" d="M107.61,49.86l-2.82-2.43l2.87-3.34l3.02,2.18l3.63-4.21c4.58-5.32,9.36-7.01,13.47-3.47
	c1.26,1.08,2.22,2.5,2.71,3.85l-3.63,2.68c-0.39-1.09-1.02-2.05-1.74-2.68c-1.98-1.71-4.47-0.74-7.39,2.65l-3.58,4.16l4.38,3.77
	l-3.08,3.58l-4.38-3.77L91.54,75.52l-3.46-2.98L107.61,49.86z"/>
<path class="st0" d="M110.17,68.63c9.03-7.19,17.96-6.67,22.1-1.41c4.13,5.26,2.6,14.13-6.43,21.33c-8.98,7.15-17.87,6.59-22,1.33
	C99.7,84.62,101.19,75.78,110.17,68.63z M122.91,84.84c6.23-4.97,8.49-10.88,5.56-14.59c-2.92-3.72-9.12-2.83-15.36,2.14
	c-6.24,4.97-8.42,10.76-5.5,14.47C110.55,90.57,116.68,89.8,122.91,84.84z"/>
<path class="st0" d="M120.57,100.97l38.16-21.52l2.2,4.02l-38.5,21.71c-1.55,0.88-1.87,1.75-1.53,2.37c0.12,0.22,0.22,0.4,0.57,0.78
	l-3.57,2.76c-0.59-0.42-1.12-0.99-1.73-2.09C114.53,105.99,116.3,103.38,120.57,100.97z"/>
<path class="st0" d="M152.1,101.92l1.85,4.2l-31.44,14.32l-1.85-4.2L152.1,101.92z M161.81,96.67c2.03-0.92,3.92-0.4,4.65,1.26
	c0.73,1.66-0.15,3.45-2.18,4.37c-2.14,0.98-4.04,0.46-4.77-1.21C158.79,99.43,159.67,97.65,161.81,96.67z"/>
<path class="st0" d="M141.48,120.53c10.94-3.53,19.04,0.17,21,6.59c1.96,6.42-2.63,14.22-13.56,17.75
	c-10.88,3.51-18.92-0.21-20.88-6.63C126.07,131.81,130.6,124.04,141.48,120.53z M147.53,140.33c7.55-2.44,11.75-7.19,10.36-11.73
	s-7.45-5.92-15.01-3.48c-7.55,2.44-11.64,7.1-10.25,11.64C134.02,141.29,139.98,142.77,147.53,140.33z"/>
</svg>
