<?xml version="1.0" encoding="utf-8"?>
<!-- Generator: Adobe Illustrator 24.2.1, SVG Export Plug-In . SVG Version: 6.00 Build 0)  -->
<svg version="1.1" id="Layer_1" xmlns="http://www.w3.org/2000/svg" xmlns:xlink="http://www.w3.org/1999/xlink" x="0px" y="0px"
	 viewBox="0 0 100 100.04" style="enable-background:new 0 0 100 100.04;" xml:space="preserve">
<style type="text/css">
	.st0{fill:#EC2426;}
	.st1{fill:none;}
	.st2{font-family:'MyriadPro-Regular';}
	.st3{font-size:9.0181px;}
</style>
<g>
	<path class="st0" d="M29.42,5.08c0.66-0.38,1.55-0.82,2.72-1.25c1.44-0.53,2.63-0.58,3.52-0.22c0.82,0.31,1.49,1,1.86,2
		c0.38,1.03,0.37,1.94,0.01,2.74c-0.47,1.11-1.58,1.99-3,2.51c-0.44,0.16-0.85,0.29-1.21,0.33l1.67,4.54l-1.46,0.54L29.42,5.08z
		 M32.88,10c0.35-0.03,0.77-0.15,1.25-0.33c1.76-0.65,2.52-1.9,1.95-3.46c-0.55-1.49-1.87-1.83-3.48-1.24
		c-0.64,0.24-1.11,0.46-1.33,0.62L32.88,10z"/>
	<path class="st0" d="M48.63,8.19c0.4,3.18-1.63,4.84-3.7,5.1c-2.33,0.29-4.33-1.19-4.68-3.9c-0.36-2.88,1.31-4.8,3.69-5.1
		C46.41,3.98,48.3,5.56,48.63,8.19z M41.83,9.14c0.24,1.88,1.5,3.17,3.03,2.97c1.49-0.19,2.43-1.73,2.19-3.67
		c-0.18-1.46-1.14-3.21-2.99-2.98C42.2,5.7,41.62,7.51,41.83,9.14z"/>
	<path class="st0" d="M51.03,6.82c0.07-1.02,0.11-1.89,0.1-2.7l1.37,0.09l-0.06,1.7l0.07,0c0.47-1.14,1.46-1.81,2.52-1.74
		c0.18,0.01,0.3,0.04,0.44,0.08l-0.1,1.48c-0.16-0.04-0.32-0.07-0.53-0.09c-1.11-0.07-1.95,0.72-2.24,1.88
		c-0.05,0.21-0.1,0.46-0.12,0.73l-0.3,4.61l-1.55-0.1L51.03,6.82z"/>
	<path class="st0" d="M60.69,2.88L60.15,5.3l2.2,0.49l-0.26,1.17l-2.2-0.49l-1.02,4.56c-0.23,1.05-0.07,1.71,0.78,1.9
		c0.4,0.09,0.71,0.1,0.91,0.09l-0.19,1.17c-0.32,0.06-0.81,0.04-1.41-0.09c-0.72-0.16-1.24-0.52-1.51-1.02
		c-0.34-0.55-0.33-1.34-0.1-2.33l1.03-4.61l-1.31-0.29l0.26-1.17l1.31,0.29l0.45-2.02L60.69,2.88z"/>
	<path class="st0" d="M66.44,3.63c0.74,0.19,1.68,0.48,2.83,0.98c1.41,0.61,2.3,1.39,2.7,2.27c0.38,0.79,0.39,1.75-0.04,2.73
		c-0.44,1-1.07,1.66-1.88,1.99c-1.1,0.47-2.51,0.35-3.91-0.26c-0.43-0.19-0.81-0.37-1.1-0.6l-1.93,4.43l-1.43-0.62L66.44,3.63z
		 M65.55,9.59c0.28,0.22,0.66,0.42,1.13,0.63c1.72,0.75,3.13,0.37,3.8-1.15c0.63-1.46-0.09-2.61-1.67-3.3
		c-0.62-0.27-1.12-0.43-1.39-0.47L65.55,9.59z"/>
	<path class="st0" d="M78.21,19.16c-1.9,2.57-4.52,2.38-6.2,1.13c-1.88-1.39-2.32-3.85-0.69-6.05c1.72-2.33,4.26-2.57,6.19-1.14
		C79.51,14.58,79.79,17.03,78.21,19.16z M72.64,15.15c-1.13,1.52-1.1,3.32,0.13,4.24c1.21,0.89,2.96,0.43,4.12-1.14
		c0.87-1.18,1.39-3.11-0.11-4.22C75.28,12.92,73.62,13.82,72.64,15.15z"/>
	<path class="st0" d="M85.71,15.13l1.09,1.14l-9.19,8.77l-1.09-1.14L85.71,15.13z"/>
	<path class="st0" d="M79.13,26.81l6.84-5.31l0.96,1.24l-6.84,5.31L79.13,26.81z M88.97,21.39c-0.41,0.34-0.99,0.29-1.38-0.2
		c-0.34-0.44-0.24-1.01,0.18-1.34c0.44-0.34,1.03-0.28,1.38,0.17C89.52,20.49,89.41,21.05,88.97,21.39z"/>
	<path class="st0" d="M89.01,34.55c-2.83,1.5-5.1,0.2-6.09-1.65c-1.1-2.07-0.43-4.47,1.99-5.76c2.56-1.36,4.95-0.48,6.08,1.63
		C92.16,30.97,91.35,33.31,89.01,34.55z M85.71,28.52c-1.67,0.89-2.43,2.53-1.7,3.88c0.71,1.33,2.48,1.66,4.21,0.74
		c1.3-0.69,2.6-2.21,1.72-3.85C89.06,27.65,87.16,27.75,85.71,28.52z"/>
</g>
<rect x="25.76" y="15.05" transform="matrix(0.984 -0.1783 0.1783 0.984 -2.2683 6.0739)" class="st1" width="13.78" height="1.22"/>
<text transform="matrix(0.1783 0.984 -0.984 0.1783 33.0245 14.9692)" class="st2 st3">                             </text>
</svg>
