<?xml version="1.0" encoding="utf-8"?>
<!-- Generator: Adobe Illustrator 24.2.1, SVG Export Plug-In . SVG Version: 6.00 Build 0)  -->
<svg version="1.1" id="Layer_1" xmlns="http://www.w3.org/2000/svg" xmlns:xlink="http://www.w3.org/1999/xlink" x="0px" y="0px"
	 viewBox="0 0 765.63 462.54" style="enable-background:new 0 0 765.63 462.54;" xml:space="preserve">
<style type="text/css">
	.st0{opacity:0.55;}
	.st1{fill:#FECF0C;}
	.st2{fill:#FFFFFF;}
</style>
<g class="st0">
	<path class="st1" d="M113.11,449.55c15.78,6.41,33.33,6.89,50.32,5.7c35.42-2.49,70.34-11.96,102.18-27.71
		c44.49-22.01,84.45-56.6,133.58-63.72c21.72-3.14,43.81-0.61,65.59,2.12c55.89,7.01,114.7,14.96,166.91-6.17
		c27.97-11.31,52.35-30.55,71.91-53.51c44.89-52.69,63.89-129.78,37.57-193.8c-59.61-145-300.41-94.33-379.69,5.79
		c-19.06,24.06-31.15,53.39-52.38,75.56c-29.04,30.33-71.47,43.52-112.65,51.74c-41.18,8.22-83.78,12.85-121.79,30.69
		c-35.28,16.55-65.62,51.43-42.88,86.38C51.03,392.22,79.19,435.76,113.11,449.55z"/>
</g>
<g>
	<g>
		<path class="st2" d="M570.72,5.02c9.61-1.43,18.81,2.34,27.03,6.97c7.71,4.35,15.06,9.41,22.45,14.28
			c14.69,9.69,29.18,19.78,42.4,31.42c13.3,11.7,25.17,24.96,34.21,40.24c9.74,16.48,16.36,34.57,21.87,52.83
			c11.4,37.73,18.33,77.83,16.41,117.35c-0.89,18.31-4.27,36.96-13.25,53.15c-7.36,13.26-18.18,24.19-30.87,32.41
			c-25.36,16.45-56.36,22.86-86.14,24.73c-20.51,1.28-41.21,0.91-61.57-1.93c-19.46-2.71-38.37-8-57.07-13.91
			c-18.54-5.86-36.92-12.28-55.75-17.16c-18.61-4.81-37.61-7.75-56.81-8.65c-38.75-1.8-77.52,4.25-114.94,13.99
			c-38.32,9.97-74.86,24.55-112.02,38c-32.51,11.78-70.2,20.73-102.54,3.4c-7.07-3.79-13.31-8.74-18.55-14.81
			c-2-2.31-5.33,1.05-3.35,3.35c22.71,26.26,60.48,29.52,92.44,22.61c20.09-4.34,39.18-12.19,58.34-19.46
			c18.87-7.16,37.89-13.96,57.16-19.97c38.82-12.12,78.96-21.22,119.74-22.53c20.48-0.66,41.06,0.66,61.2,4.53
			c19.54,3.75,38.52,9.83,57.42,15.97c19.31,6.27,38.66,12.64,58.59,16.66c20.09,4.05,40.63,5.6,61.11,5.29
			c32.27-0.5,65.67-5.02,94.69-19.98c13.16-6.79,25.28-15.93,34.54-27.56c11.01-13.84,17.36-30.46,20.25-47.81
			c3.12-18.73,2.83-37.94,1.34-56.81c-1.62-20.59-5.07-41.03-10.02-61.08c-9.15-37.06-22.25-73.94-48.71-102.31
			c-11.97-12.83-25.75-23.83-40.02-33.98c-7.44-5.29-15.03-10.34-22.67-15.33c-7.82-5.11-15.59-10.57-24.12-14.43
			c-7.69-3.48-15.61-5.3-24.03-4.05C566.46,0.9,567.74,5.46,570.72,5.02L570.72,5.02z"/>
	</g>
</g>
</svg>
