<?xml version="1.0" encoding="utf-8"?>
<!-- Generator: Adobe Illustrator 24.2.1, SVG Export Plug-In . SVG Version: 6.00 Build 0)  -->
<svg version="1.1" id="Layer_1" xmlns="http://www.w3.org/2000/svg" xmlns:xlink="http://www.w3.org/1999/xlink" x="0px" y="0px"
	 viewBox="0 0 959.87 737.8" style="enable-background:new 0 0 959.87 737.8;" xml:space="preserve">
<style type="text/css">
	.st0{opacity:0.55;}
	.st1{fill:#FECF0C;}
</style>
<g class="st0">
	<path class="st1" d="M12.39,414.92c0.59,9.32,0.92,18.68,0.78,28.09c-0.9,62.29,3.27,126.53,16.93,187.44
		c10.15,45.25,37.34,81.91,84.11,94.09c42.04,10.95,87.59-0.37,124.85-22.71s67.31-54.83,94.58-88.64
		c13.88-17.21,27.48-35.16,45.62-47.8c16.8-11.7,36.6-18.21,56.24-23.97c22.24-6.52,45.46-12.33,68.37-8.87
		c33.88,5.12,61.15,29.31,90.69,46.68c66.43,39.06,151.87,43.8,222.21,12.33c59.65-26.69,107.1-78.79,129.37-140.1
		c5.34-14.71,8.94-25.09,3.19-39.65c-5.31-13.45-12.86-26.45-20.41-38.74c-15.3-24.89-33.88-47.77-55.17-67.79
		c-18.76-17.64-40.35-34.13-49.95-58.02c-7.94-19.78-6.49-41.88-9.28-63.01c-7.82-59.17-50.19-110.05-102.45-138.89
		s-113.32-38.02-173-38.17c-10.68-0.03-21.58,0.26-31.62,3.9c-12.24,4.43-22.19,13.48-31.42,22.66
		c-45.08,44.9-85.33,101.2-146.62,118.28c-75.7,21.1-160.63-25.28-233.3,4.63c-44.73,18.42-74.53,63.32-85.61,110.41
		C-1.29,317.18,9.26,365.5,12.39,414.92z"/>
</g>
</svg>
