<?xml version="1.0" encoding="utf-8"?>
<!-- Generator: Adobe Illustrator 24.2.1, SVG Export Plug-In . SVG Version: 6.00 Build 0)  -->
<svg version="1.1" id="Layer_1" xmlns="http://www.w3.org/2000/svg" xmlns:xlink="http://www.w3.org/1999/xlink" x="0px" y="0px"
	 viewBox="0 0 991.82 766.92" style="enable-background:new 0 0 991.82 766.92;" xml:space="preserve">
<style type="text/css">
	.st0{opacity:0.55;}
	.st1{fill:#FECF0C;}
</style>
<g class="st0">
	<path class="st1" d="M62.12,562.27c-2.26-4.28-3.97-8.82-5.2-13.48c-4.53-17.23-2.6-35.45-0.01-52.82
		c1.29-8.65,3.46-17.43,4.09-26.14c0.68-9.49-0.56-19.31-3.82-28.31c-1.85-5.09-4.43-9.93-6.75-14.85
		c-8.66-18.39-16.75-37.07-23.63-56.18c-6.71-18.62-12.27-37.68-15.89-57.11c-3.54-19-5.19-38.36-4.19-57.66
		c1.01-19.59,4.78-39,11.36-57.54c27.91-78.62,96.71-140.27,176.6-168.86s169.47-25.93,250.69-1.18s154.55,70.59,218.41,125.57
		c49.92,42.97,98.61,93.88,163.7,107.15c34.9,7.12,74.11,3.34,102.93,23.86c17.35,12.35,27.94,31.74,36.21,51.11
		c13.75,32.2,22.69,68.77,11.05,101.75c-16.22,45.95-65.83,70.41-109.86,92.93c-50.58,25.87-99.33,55.03-147.24,85.37
		c-63.33,40.1-125.76,82.57-195.15,111.51c-69.39,28.94-147.62,43.69-220.77,25.64c-65.85-16.24-122.38-57.54-171.37-103.55
		C105.75,623.59,79.63,595.49,62.12,562.27z"/>
</g>
</svg>
