<?xml version="1.0" encoding="utf-8"?>
<!-- Generator: Adobe Illustrator 24.2.1, SVG Export Plug-In . SVG Version: 6.00 Build 0)  -->
<svg version="1.1" id="Layer_1" xmlns="http://www.w3.org/2000/svg" xmlns:xlink="http://www.w3.org/1999/xlink" x="0px" y="0px"
	 viewBox="0 0 659.33 482.39" style="enable-background:new 0 0 659.33 482.39;" xml:space="preserve">
<style type="text/css">
	.st0{opacity:0.55;}
	.st1{fill:#FECF0C;}
</style>
<g class="st0">
	<path class="st1" d="M55.96,234.68c-27.4-28.47-49.91-63.82-55.01-103.39S11.33,47.86,45.03,27.61
		c25.68-15.43,57.64-15.45,86.91-9.75s57.42,16.58,86.8,21.64c38.71,6.66,79.09,2.9,115.97-10.81c25.05-9.31,48.81-23.2,75.17-27.34
		c20.34-3.2,41.21-0.36,61.09,5.04c25.67,6.98,51.14,18.99,67.8,40.11c21.36,27.08,24.86,64.86,19.99,99.27
		c-1.49,10.53-3.52,21.98,1.56,31.27c3.51,6.4,9.82,10.58,15.89,14.5c18.76,12.11,37.82,24.4,52.58,41.33
		c36.17,41.47,39.5,106.9,13.68,155.78c-25.82,48.88-76.8,81.01-130.4,90.43s-109.3-2.05-158.99-24.63s-94.03-55.8-135.93-91.21
		c-20.55-17.37-40.88-35.5-64.63-47.89c-20.2-10.54-43.18-17.16-59.05-33.71c-14.64-15.27-21.7-37.61-38.72-50.05"/>
</g>
</svg>
