<?xml version="1.0" encoding="utf-8"?>
<!-- Generator: Adobe Illustrator 24.2.1, SVG Export Plug-In . SVG Version: 6.00 Build 0)  -->
<svg version="1.1" id="Layer_1" xmlns="http://www.w3.org/2000/svg" xmlns:xlink="http://www.w3.org/1999/xlink" x="0px" y="0px"
	 viewBox="0 0 1656 1983.64" style="enable-background:new 0 0 1656 1983.64;" xml:space="preserve">
<style type="text/css">
	.st0{opacity:0.55;}
	.st1{fill:#FDCF0E;}
	.st2{fill:#AE62A7;}
</style>
<g class="st0">
	<path class="st1" d="M1580.82,1295.43c1.03-41.19,14.95-80.8,23.47-121.11c31.1-147.17-10.45-300.13-67.93-439.14
		c-19.3-46.66-40.89-95.96-32.55-145.76c5.13-30.63,21.2-58.12,35.42-85.74c21.97-42.68,40.31-88.14,44.77-135.94
		c4.46-47.8-6.27-98.47-37.04-135.31c-58.11-69.57-162.28-69.7-249.08-95.81c-86.95-26.16-168.31-83.59-258.85-76.8v0.36l-0.33-0.2
		c-36.73-2.26-124.37-0.01-155.8,19.14c-42.59,25.94-56.22,80.38-85.26,120.92c-27.35,38.17-70.46,64.68-116.87,71.85
		c-90.3,13.95-180.21-42.47-270.69-29.73c-57.07,8.03-107.47,43.32-145.08,86.99s-64.14,95.57-90.32,146.94
		C85.8,650.57-6.99,855.53,65.44,1051.31c8.32,22.49,18.55,44.56,33.38,63.41c48.37,61.5,133.65,77,201.34,116.26
		c90.12,52.27,148.75,149.15,170.77,250.97c9.39,43.42,12.96,88.6,30.28,129.5c16.4,38.74,45.05,72.18,80.81,94.35
		c63.14,39.13,142.95,41.62,208.7,76.2c91.2,47.97,150.56,162.42,247.01,188.37c3.76,1.01,7.84-0.15,11.96-1.36
		c33.57,8.42,69.99,0.42,104.18-7.7c66.19-15.73,132.43-31.47,197.59-51.03c43.62-13.09,87.52-28.3,124.12-55.41
		c34.21-25.35,60.34-59.85,85.98-93.86c37.41-49.63,76.16-102.46,83.32-164.19C1656.83,1493.96,1578.22,1398.94,1580.82,1295.43z"/>
</g>
<g>
	<g>
		<path class="st2" d="M885.15,1765.34c-48.64-21.31-100.91-30.58-153.21-37.74c-26.66-3.65-53.35-7.05-80.02-10.55
			c-27.42-3.6-56.31-4.97-83-12.44c-45.66-12.77-73.39-60.64-94.46-99.83c-20.79-38.68-36.83-79.65-53.79-120.09
			c-31.13-74.24-67.21-148.45-135.96-194.8c-67.47-45.48-153.66-63.3-212.16-122.04c-34.72-34.86-51-81.79-53.05-130.38
			c-2.29-54.33,12.38-107.42,28.17-158.87C62.7,829.66,75,779.84,90.96,731.19c7.9-24.08,16.89-47.86,28.33-70.5
			c11.88-23.5,26.11-45.85,38.82-68.92c26.51-48.11,51.33-97.13,77.01-145.69c25.4-48.03,50.46-97.22,84.15-140.1
			c32.31-41.13,72.4-72.79,124.07-84.94c53.26-12.53,108.43-5.93,161.54,3.88c49.77,9.19,102.07,25.27,153.11,18.71
			c40.6-5.22,72.66-28.24,98.73-58.68c24.92-29.09,44.55-62.26,69.42-91.38c29.23-34.23,65.9-58.69,111.72-62.7
			c48.48-4.24,96.59,10.44,142.38,24.52c22.85,7.03,45.64,14.14,68.83,20c21.58,5.45,43.89,11.41,62.44,24.23
			c21.77,15.04,30.21,38.26,38.63,62.22c6.37,18.12,14.28,35.02,26.11,50.26c21.39,27.54,50.77,47.48,80.17,65.56
			c32.38,19.9,66.4,37.94,95.46,62.71c33.59,28.63,55.25,65.9,60.28,110.16c12.08,106.3-56.72,199.4-93.13,294.05
			c-19.1,49.66-33.48,101.13-42.88,153.49c-9.09,50.61-17.99,105.55-3.05,155.84c7.07,23.78,18.41,46,29.88,67.9
			c12.89,24.61,25.63,49.3,38.08,74.14c25.32,50.57,51.1,101.23,74.22,152.85c11.13,24.85,20.22,51.06,20.34,78.59
			c0.12,25.85-6.95,51.02-15.61,75.16c-8.6,23.97-18.97,47.27-27.01,71.44c-7.48,22.47-12.4,45.64-17.95,68.63
			c-5.6,23.19-11.83,46.55-22.52,68c-11.28,22.63-27.67,40.36-46.89,56.49c-17.57,14.75-36.38,28.35-51.35,45.89
			c-13.52,15.84-22.83,34.49-32.95,52.54c-10.78,19.21-23.07,38.59-42.58,49.94c-21.02,12.23-45.79,13.49-69.34,16.32
			c-36.94,4.44-73.66,10.63-110.83,12.99c-35.92,2.28-77.07,3.28-109.88-13.91c-17.91-9.39-32.19-25.93-46.41-39.99
			c-16.29-16.11-32.23-32.59-48.79-48.43C961.19,1811.53,926.15,1783.84,885.15,1765.34c-3.59-1.62-6.73,3.69-3.11,5.32
			c45.2,20.4,82.67,51.98,117.75,86.49c17.14,16.86,33.84,34.17,51.19,50.82c12.91,12.39,25.28,24.58,41.95,31.68
			c33.89,14.43,73.49,13.57,109.52,11.05c37.17-2.6,73.86-8.96,110.84-13.19c22.41-2.56,45.51-4.4,65.81-15.17
			c18.51-9.82,31.46-26.48,42.05-44.13c11.32-18.87,20.39-39.23,34.06-56.61c14.78-18.8,34.23-33.04,52.49-48.2
			c18.04-14.98,34.36-31.21,45.98-51.77c11.51-20.37,18.57-42.91,24.37-65.46c5.86-22.78,10.46-45.88,17.12-68.46
			c7.46-25.32,18.06-49.53,27.36-74.19c8.9-23.6,16.72-47.91,18.76-73.2c2.09-25.91-3.28-51.13-12.56-75.25
			c-9.24-24.03-21.15-47.01-32.33-70.17c-12.76-26.41-25.57-52.79-38.57-79.08c-13-26.29-26.21-52.48-39.75-78.49
			c-12.87-24.71-26.74-49.18-35.94-75.57c-18.89-54.19-9.12-113.86,1.23-168.88c10.05-53.42,25.28-105.87,45.43-156.36
			c20.38-51.09,47.68-99.1,67.5-150.41c17.45-45.19,28.24-94.02,21.15-142.54c-6.17-42.27-27.4-78.23-59.41-106.04
			c-56.21-48.83-136.17-71.81-180.52-134.01c-24.89-34.9-25.41-83.43-62.87-109.22c-18.18-12.52-40.01-18.76-61.16-24.15
			c-23.59-6.02-46.82-13.07-70.08-20.23c-44.98-13.85-92-28.25-139.63-25.62c-44.01,2.43-82.02,22.16-112.06,53.88
			c-54.59,57.64-88.28,150.48-177.84,159.78c-26.87,2.79-53.93-1.13-80.33-5.99c-28.27-5.2-56.36-11.37-84.71-16.12
			c-50.65-8.47-103.2-12.48-153.42,0.83c-104.03,27.59-155.71,132.36-202.23,219.97c-26.88,50.62-52.69,101.81-80.36,152.01
			c-13.21,23.98-28.1,47.19-40.23,71.73c-10.52,21.3-19.04,43.54-26.53,66.07c-16.49,49.61-28.97,100.53-44.31,150.51
			c-15.64,50.94-30.13,103.54-28.5,157.32c1.42,46.74,15.25,92.93,46.31,128.63c26.21,30.13,61.37,50.54,96.79,67.99
			c38.18,18.81,77.94,34.72,114.23,57.18c36.91,22.84,66.75,53.32,90.2,89.76c47.09,73.18,69.16,158.91,111,234.84
			c19.96,36.23,45.79,79.25,86.27,94.82c24.66,9.48,53.14,10.35,79.13,13.76c29.92,3.93,59.85,7.76,89.75,11.81
			c52.83,7.16,106,16.05,155.14,37.58C885.64,1772.24,888.78,1766.93,885.15,1765.34z"/>
	</g>
</g>
</svg>
