<?xml version="1.0" encoding="utf-8"?>
<!-- Generator: Adobe Illustrator 24.2.1, SVG Export Plug-In . SVG Version: 6.00 Build 0)  -->
<svg version="1.1" id="Layer_1" xmlns="http://www.w3.org/2000/svg" xmlns:xlink="http://www.w3.org/1999/xlink" x="0px" y="0px"
	 viewBox="0 0 1753.24 1336.45" style="enable-background:new 0 0 1753.24 1336.45;" xml:space="preserve">
<style type="text/css">
	.st0{opacity:0.55;}
	.st1{fill:#FECF0C;}
	.st2{fill:#FFFFFF;}
</style>
<g class="st0">
	<path class="st1" d="M115,986.9c-3.97-7.53-6.99-15.53-9.14-23.73c-7.96-30.33-4.57-62.38-0.01-92.95
		c2.27-15.22,6.1-30.66,7.19-46.01c1.19-16.71-0.98-33.99-6.73-49.82c-3.25-8.96-7.8-17.48-11.87-26.13
		c-15.24-32.37-29.47-65.23-41.58-98.86c-11.8-32.77-21.59-66.3-27.96-100.51c-6.23-33.43-9.13-67.51-7.38-101.47
		c1.77-34.47,8.41-68.64,19.99-101.25C86.62,207.81,207.69,99.33,348.28,49.01s298.23-45.64,441.16-2.08
		s271.97,124.22,384.36,220.97c87.84,75.62,173.53,165.21,288.08,188.56c61.41,12.52,130.42,5.88,181.14,41.99
		c30.54,21.74,49.17,55.85,63.73,89.95c24.19,56.66,39.94,121.02,19.45,179.06c-28.55,80.85-115.84,123.9-193.33,163.53
		c-89.01,45.52-174.79,96.84-259.1,150.23c-111.44,70.57-221.3,145.31-343.42,196.24s-259.77,76.88-388.5,45.13
		c-115.88-28.58-215.36-101.25-301.57-182.22C191.78,1094.81,145.82,1045.35,115,986.9z"/>
</g>
<g>
	<g>
		<path class="st2" d="M48.38,232.16c123.1-59.8,260.45-76.65,395.79-80.18c68-1.77,136.02-0.38,204.02,0.55
			c71.42,0.98,142.77-0.63,214.18-0.41c72.21,0.22,147.65,2.84,216.92,25.24c33.6,10.86,62.05,29.05,86.87,54.06
			c22.98,23.16,42.94,49.21,61.6,75.91c36.26,51.87,67.72,107.05,106.72,157c35.57,45.56,78.15,82.63,126.32,114.32
			c89.8,59.07,196.08,102.15,264.88,188.02c8.69,10.84,16.52,22.31,23.61,34.26c3,5.05,10.9,0.46,7.89-4.61
			c-57.11-96.22-161.22-145.94-253.56-201.6c-49.17-29.64-96.76-62.18-135.7-104.79c-44.1-48.26-77.36-104.93-113.28-159.2
			c-17.55-26.52-35.8-52.63-56.16-77.09c-20.76-24.94-43.84-49-72.06-65.53c-29.56-17.32-63.3-26.02-96.73-32.22
			c-36.29-6.74-73.13-10.15-109.98-11.7c-73.89-3.12-147.92,0.32-221.84-0.22c-69.49-0.51-138.98-2.4-208.47-1.84
			c-135.49,1.08-274.04,11.45-401.02,62.39c-15.11,6.06-29.98,12.67-44.62,19.78C38.48,226.84,43.11,234.72,48.38,232.16
			L48.38,232.16z"/>
	</g>
</g>
</svg>
