<?xml version="1.0" encoding="utf-8"?>
<!-- Generator: Adobe Illustrator 24.2.1, SVG Export Plug-In . SVG Version: 6.00 Build 0)  -->
<svg version="1.1" id="Layer_1" xmlns="http://www.w3.org/2000/svg" xmlns:xlink="http://www.w3.org/1999/xlink" x="0px" y="0px"
	 viewBox="0 0 1502.29 1589.66" style="enable-background:new 0 0 1502.29 1589.66;" xml:space="preserve">
<style type="text/css">
	.st0{opacity:0.55;}
	.st1{fill:#FECF0C;}
	.st2{fill:#AF62A7;}
</style>
<g>
	<g class="st0">
		<path class="st1" d="M101.93,612.29c-40.71-29.08-59.11-66.37-65.99-114.63c-8.6-60.37-20.62-119.44-16.95-180.84
			c1.01-16.94,3.1-33.8,5.54-50.6c3.44-23.63,7.75-47.27,14.98-70.06C62.4,124.05,128.8,77.65,195.84,48.11
			c68.31-30.09,145.35-40.9,219.1-28.52c120.29,20.2,228.68,101.51,281.73,211.34c32.13,66.52,45.58,143.16,91.9,200.71
			c57.46,71.37,153.39,98.39,244.15,110.96c90.76,12.57,185.2,15.39,268.23,54.13c76.76,35.81,138.89,102.26,168.6,181.58
			c29.7,79.33,26.37,170.63-9.89,247.18c-45.55,96.16-138,165.18-177.52,263.97c-27.37,68.42-28.17,148.51-72.27,207.56
			c-35.67,47.77-95.24,73.54-154.59,79.15c-59.35,5.61-118.96-6.87-176.2-23.55c-41.29-12.03-82.7-26.68-117.04-52.57
			c-44.15-33.27-73.18-82.36-100.22-130.58c-27.95-49.84-55.23-100.73-70.34-155.84c-20.43-74.57-17.64-153.24-25.7-230.14
			c-8.06-76.9-29.9-157.42-87.35-209.17c-39.97-36.01-92.57-53.96-143.6-71.01c-39.17-13.09-78.34-26.17-117.51-39.26
			C177.18,650.64,136.37,636.89,101.93,612.29z"/>
	</g>
	<g>
		<g>
			<path class="st2" d="M52.41,521.46c11.79,51.5,58.8,82.76,104.24,102.81c59.69,26.33,123.34,42.97,184.07,66.68
				c56.46,22.04,111.48,49.94,156.8,90.8c21.82,19.67,41.13,42.15,56.19,67.42c15.9,26.68,26.54,56.05,33.31,86.3
				c26.88,120.16-3.83,246.19,31.36,365.23c15.96,53.98,46.54,101.21,92.62,134.12c44.55,31.81,98.05,48.88,151.19,59.71
				c63.5,12.94,130.09,21.2,194.89,16.33c32.93-2.48,66.06-8.54,97.02-20.25c14.24-5.38,27.74-12.09,40.66-20.14
				c13.5-8.41,27.41-16.15,40.71-24.87c12.56-8.23,24.41-17.42,34.84-28.26c3.21-3.34-1.87-8.44-5.09-5.09
				c-22.09,22.95-50.78,37.75-77.66,54.23c-26.96,16.52-57.71,25.93-88.62,31.75c-67.22,12.65-137,5.91-203.97-5.02
				c-53.81-8.78-108.24-22.15-156.05-49.19c-49.32-27.89-86.24-70.39-106.3-123.47c-43.05-113.94-15.71-238.45-33.03-356.35
				c-8.64-58.8-29.93-113.99-69.13-159.24c-36.71-42.37-84.53-74.13-134.81-98.18c-59.8-28.6-123.52-47.42-185.81-69.64
				c-48.99-17.48-105.8-37.81-135.87-83.35c-6.93-10.5-11.82-21.99-14.62-34.25C58.32,515.03,51.37,516.94,52.41,521.46
				L52.41,521.46z"/>
		</g>
	</g>
</g>
</svg>
