<?xml version="1.0" encoding="utf-8"?>
<!-- Generator: Adobe Illustrator 24.2.1, SVG Export Plug-In . SVG Version: 6.00 Build 0)  -->
<svg version="1.1" id="Layer_1" xmlns="http://www.w3.org/2000/svg" xmlns:xlink="http://www.w3.org/1999/xlink" x="0px" y="0px"
	 viewBox="0 0 647.19 916.75" style="enable-background:new 0 0 647.19 916.75;" xml:space="preserve">
<style type="text/css">
	.st0{opacity:0.55;}
	.st1{fill:#FECF0C;}
</style>
<g class="st0">
	<path class="st1" d="M208.63,858.22c36.05,28.42,82.19,48.03,127.16,56.51c26,4.9,58.13-0.37,84.3-2.76
		c28.36-2.59,56.57-6.84,84.39-12.96c29.76-6.54,60-15.7,83.37-35.26c23.36-19.57,38.37-51.8,29.84-81.06
		c-4.6-15.8-15.28-28.97-23.46-43.25c-22.05-38.51-25.39-87.19-8.82-128.35c11.36-28.21,31.19-52.37,42.76-80.5
		c29.25-71.15-2.73-158.34-64.15-204.67c-27.06-20.42-61.94-38.19-68.72-71.4c-7.51-36.81,24.22-69.27,33.65-105.64
		c11.84-45.67-15.06-95.64-55.83-119.39c-56.18-32.72-114.17-17.17-171.68-0.04c-60.42,18-118.79,44.91-168.48,84.1
		C74.28,159.83,28.25,224.17,11.93,297.1c-6.79,30.35-8.32,62.62,1.44,92.15c15.66,47.39,57.16,80.57,88.47,119.43
		c50.23,62.33,75.53,144.19,69.24,223.99c-2.27,28.81-8.24,59.17,3.43,85.61C181.65,834.47,194.74,847.27,208.63,858.22z"/>
</g>
</svg>
