<?xml version="1.0" encoding="utf-8"?>
<!-- Generator: Adobe Illustrator 24.2.1, SVG Export Plug-In . SVG Version: 6.00 Build 0)  -->
<svg version="1.1" id="Layer_1" xmlns="http://www.w3.org/2000/svg" xmlns:xlink="http://www.w3.org/1999/xlink" x="0px" y="0px"
	 viewBox="0 0 729.71 862.38" style="enable-background:new 0 0 729.71 862.38;" xml:space="preserve">
<style type="text/css">
	.st0{opacity:0.55;}
	.st1{fill:#FDCF0E;}
</style>
<g class="st0">
	<path class="st1" d="M691.9,553.14c0.46-18.22,6.61-35.74,10.38-53.57c13.76-65.1-4.62-132.76-30.05-194.25
		c-8.54-20.64-18.09-42.45-14.4-64.47c2.27-13.55,9.38-25.71,15.67-37.93c9.72-18.88,17.83-38.99,19.8-60.13
		c1.97-21.14-2.77-43.56-16.39-59.86c-25.7-30.77-71.78-30.83-110.18-42.38c-38.46-11.57-74.45-36.98-114.5-33.97v0.16l-0.15-0.09
		c-16.25-1-55.02,0-68.92,8.46c-18.84,11.48-24.87,35.56-37.72,53.49c-12.1,16.89-31.17,28.61-51.69,31.78
		c-39.94,6.17-79.72-18.79-119.74-13.15c-25.24,3.55-47.54,19.16-64.18,38.48s-28.37,42.27-39.95,65
		c-39.31,77.18-80.36,167.84-48.32,254.44c3.68,9.95,8.21,19.71,14.76,28.05c21.4,27.21,59.12,34.06,89.06,51.43
		c39.86,23.12,65.8,65.97,75.54,111.01c4.15,19.21,5.73,39.19,13.39,57.28c7.26,17.14,19.93,31.93,35.75,41.73
		c27.93,17.31,63.23,18.41,92.32,33.71c40.34,21.22,66.6,71.85,109.26,83.32c1.66,0.45,3.47-0.07,5.29-0.6
		c14.85,3.72,30.96,0.19,46.09-3.41c29.28-6.96,58.58-13.92,87.4-22.57c19.3-5.79,38.72-12.52,54.9-24.51
		c15.13-11.21,26.69-26.48,38.03-41.52c16.55-21.95,33.69-45.32,36.86-72.63C725.52,640.96,690.75,598.93,691.9,553.14z"/>
</g>
</svg>
