<?xml version="1.0" encoding="utf-8"?>
<!-- Generator: Adobe Illustrator 24.2.1, SVG Export Plug-In . SVG Version: 6.00 Build 0)  -->
<svg version="1.1" id="Layer_1" xmlns="http://www.w3.org/2000/svg" xmlns:xlink="http://www.w3.org/1999/xlink" x="0px" y="0px"
	 viewBox="0 0 1867.15 1673.33" style="enable-background:new 0 0 1867.15 1673.33;" xml:space="preserve">
<style type="text/css">
	.st0{opacity:0.55;}
	.st1{fill:#FECF0C;}
	.st2{fill:#AF62A7;}
</style>
<g class="st0">
	<path class="st1" d="M147.13,553.29c-14.01-59.79-27.26-120.47-26.08-181.87s18.1-124.41,58.21-170.91
		c61.69-71.5,166.85-90.96,260.21-76.77s179.66,56.43,267.75,90.47s183.81,60.44,276.25,41.16c62.5-13.03,118.79-46.03,178.78-67.87
		c129.92-47.3,278.82-39.82,403.34,20.27s223.03,171.99,266.85,303.12c25.06,74.99,31.63,161.11-6.6,230.33
		c-51.86,93.89-166.11,128.84-265.23,169.82c-112.21,46.38-220.53,113.67-286.93,215.32c-67.73,103.7-85.34,232.33-141.95,342.5
		c-21.99,42.8-50.87,83.61-91.42,109.53c-59.02,37.72-134.43,38.82-203.53,27.36c-171.49-28.45-327.71-127.54-438-261.9
		S222.63,1041.7,197.3,869.72c-16.64-113.02-16.81-229.84-55.1-337.47"/>
</g>
<g>
	<g>
		<path class="st2" d="M980.55,1496.19c33.91-103.47,56.08-212.38,107.98-309.03c22.33-41.58,50.12-81.04,86.19-111.86
			c37.72-32.22,83.66-50.72,132.31-58.8c95.39-15.85,193.13,3.88,288.06-17c43-9.46,84.04-27.56,117.21-56.92
			c32.52-28.79,55.63-66.56,72.27-106.35c18.23-43.58,29.22-89.89,37.14-136.35c8.7-51,14.82-102.83,16.82-154.54
			c2.14-55.19-1.2-111.27-15.37-164.84c-10.77-40.73-30.27-77.72-54.4-112.05c-81.24-115.54-210.47-186.74-345.04-221.61
			c-140.88-36.51-292.44-37.58-434.17-4.89C915.9,58.93,847.62,87.02,781.3,123.01c-44.87,24.34-89.18,50.22-136.55,69.52
			c-23.59,9.61-47.91,17.55-72.88,22.68c-28.89,5.94-58.38,7.86-87.8,8.87c-56.29,1.93-111.92,2.94-167.39,13.93
			c-51,10.1-102.12,25.72-148.56,49.37c-44.39,22.61-80.6,54.98-106.05,97.97c-25.15,42.49-40.97,90.72-47.91,139.51
			c-13.7,96.35,7.73,193.92,59.55,276.12c49.38,78.33,118.32,141.4,175.59,213.59c28.86,36.37,54.07,75.28,72.72,117.88
			c17.75,40.54,30.34,83.15,42.02,125.77c22.2,81.03,40.57,165.8,84.92,238.31c22.3,36.46,51.29,68.52,86.6,92.78
			c37.34,25.65,80.42,42.13,124.59,51.45c45.58,9.62,91.59,10.92,138,10.07c44.7-0.81,88.46-5.38,121.1-39.12
			C950.07,1579.86,966.86,1537.59,980.55,1496.19c1.55-4.68-5.82-6.68-7.36-2.03c-14.62,44.22-33.14,90.93-69.61,121.88
			c-35.67,30.27-87.69,27.18-131.56,27.57c-92.42,0.82-190.33-19.58-260.78-83.13c-63.14-56.96-93.43-138.11-116.26-217.87
			c-23.11-80.72-40.09-164.41-78.48-239.76c-41.21-80.86-106.67-145.14-165.45-213.02c-29.71-34.3-58.13-70-80.8-109.43
			c-24.57-42.74-41-89.54-48.26-138.32C7.6,545.69,27.77,435.19,90.12,358.06c31.79-39.33,76.22-64.21,122.79-82.15
			c51.71-19.92,106.14-33.09,161.24-39c54.85-5.89,110.23-2.62,165.03-8.89c49.94-5.72,96.91-21.88,142.12-43.41
			c77.78-37.04,149.58-84.88,231.53-112.9c134.21-45.89,281.79-56.27,421.76-35.21c137.69,20.72,275.86,74.2,375.61,174.13
			c24.01,24.05,45.48,50.58,63.73,79.25c25.11,39.44,41.27,81.26,49.46,127.38c9.72,54.72,9.64,110.66,5.24,165.91
			c-4.04,50.72-10.65,101.61-21.29,151.39c-18.6,87.02-53.47,179.18-133.74,226.86c-80.88,48.05-178.09,40.5-268.33,40.81
			c-47.32,0.16-95.41,2.59-141.02,16.23c-43.93,13.14-82.79,37.23-114.71,70.04c-67.52,69.37-102.6,163.52-130.61,254.29
			c-15.54,50.37-29.32,101.28-45.74,151.38C971.65,1498.84,979.02,1500.85,980.55,1496.19z"/>
	</g>
</g>
</svg>
