<?xml version="1.0" encoding="utf-8"?>
<!-- Generator: Adobe Illustrator 24.2.1, SVG Export Plug-In . SVG Version: 6.00 Build 0)  -->
<svg version="1.1" id="Layer_1" xmlns="http://www.w3.org/2000/svg" xmlns:xlink="http://www.w3.org/1999/xlink" x="0px" y="0px"
	 viewBox="0 0 1253.19 1152.32" style="enable-background:new 0 0 1253.19 1152.32;" xml:space="preserve">
<style type="text/css">
	.st0{opacity:0.55;fill:#FDCF0E;}
</style>
<path class="st0" d="M748.44,821.66c-44.83,11.84-77.56,50.22-101.43,89.97c-23.87,39.75-42.36,83.38-73.53,117.7
	c-26.21,28.86-60.1,49.62-94.83,67.3c-57.56,29.3-119.78,51.46-184.25,55.45c-64.47,3.99-131.53-11.43-182.64-50.92
	c-27.04-20.89-49.14-48.14-64-78.9c-21.82-45.17-27.66-96.2-31.59-146.21c-5.45-69.34-7.84-138.89-10.23-208.4
	c-2.87-83.41-5.47-168.83,20.29-248.21c4.45-13.7,9.94-27.49,19.73-38.06c23.91-25.8,64.35-24.65,97.15-37.37
	c69.14-26.81,94.62-108.62,132.05-172.64c32.19-55.07,78.62-101.74,133.52-134.21C443.58,16.51,483.34,1.3,523.79,4
	c44.77,3,84.95,27.25,123.13,50.83c40.78,25.19,81.56,50.39,122.35,75.58c25.88,15.98,52.06,32.12,80.97,41.57
	c40.99,13.41,85.04,12.67,127.87,17.71c79.81,9.39,159.31,41.18,213.48,100.54s78.5,148.75,48.82,223.43
	c-14.57,36.66-40.58,67.59-68.41,95.54c-112.16,112.67-261.94,187.24-419.45,208.83"/>
</svg>
